# xmcd
#
# Track frame offsets: 
#        150
#        14436
#        27398
#        49836
#        69026
#        83620
#        103072
#        128157
#        150954
#
# Disc length: 2497 seconds
#
# Revision: 0
# Processed by: cddbd v1.5.2PL0 Copyright (c) Steve Scherf et al.
# Submitted via: ExactAudioCopy v1.3
#
DISCID=6209bf09
DTITLE=Kingfish - Live
DYEAR=2019
DGENRE=Blues Rock
TTITLE0=Juke (Live)
TTITLE1=Goodbye Your Honor (Live)
TTITLE2=Battle Hymn Of The Republic (Live)
TTITLE3=Big Iron (Live)
TTITLE4=Jump Back (Live)
TTITLE5=I Hear You Knockin' (Live)
TTITLE6=Around And Around (Live)
TTITLE7=All I Need Is Love (Live)
TTITLE8=Mystery Train Mule Skinner Blues (Live)
EXTD=
EXTT0=
EXTT1=
EXTT2=
EXTT3=
EXTT4=
EXTT5=
EXTT6=
EXTT7=
EXTT8=
PLAYORDER=
